<?xml version="1.0" encoding="utf-8"?>
<!-- Generator: Adobe Illustrator 16.0.4, SVG Export Plug-In . SVG Version: 6.00 Build 0)  -->
<!DOCTYPE svg PUBLIC "-//W3C//DTD SVG 1.1//EN" "http://www.w3.org/Graphics/SVG/1.1/DTD/svg11.dtd">
<svg version="1.1" id="Noun_Project_TOS" xmlns="http://www.w3.org/2000/svg" xmlns:xlink="http://www.w3.org/1999/xlink" x="0px"
	 y="0px" width="500px" height="500px" viewBox="0 0 500 500" style="enable-background:new 0 0 500 500;" xml:space="preserve">
<style type="text/css">
<![CDATA[
	.st0{display:none;fill:#0989DA;stroke:#231F20;stroke-width:2;stroke-miterlimit:10;}
	.st1{fill:#FF90B7;stroke:#231F20;stroke-width:2;stroke-miterlimit:10;}
	.st2{fill:#231F20;stroke:#231F20;stroke-width:2;stroke-miterlimit:10;}
]]>
</style>
<g>
	<path class="st2" d="M377.7,70.5H122.3v359h255.3V70.5z M361.7,86.4v327.1H138.3V86.4H361.7"/>
	<path class="st0" d="M377.7,70.5H122.3v359h255.3V70.5z M361.7,86.4v327.1H138.3V86.4H361.7"/>
	<rect x="174.2" y="118.4" class="st1" width="151.6" height="19.9"/>
	<rect x="174.2" y="178.2" class="st1" width="151.6" height="12"/>
	<rect x="174.2" y="214.1" class="st1" width="151.6" height="12"/>
	<rect x="174.2" y="250" class="st1" width="151.6" height="12"/>
	<rect x="174.2" y="285.9" class="st1" width="91.8" height="12"/>
	<path class="st1" d="M219.1,369l-6.8,6.8l-9.1-9.1l-9.1,9.1l-6.8-6.8l9.1-9.1l-9.1-9.1l6.8-6.8l9.1,9.1l9.1-9.1l6.8,6.8l-9.1,9.1
		L219.1,369z M162.2,333.8v55.9H242v-55.9H162.2z"/>
	<path class="st1" d="M304.8,368.7l-6.6,6.6l-16.5-16.5l6.6-6.6l9.9,9.9l15.4-15.4l6.6,6.6L304.8,368.7z M258,333.8v55.9h79.8v-55.9
		H258z"/>
</g>
</svg>
